:SAMPLES-PER-SECOND 30
:FULLY-SPECIFIED
:DEGREES
562
root  56.5198 37.112 9.24311 179.449 79.1762 -175.86
RightUpLeg  -21.8355 -9.45916 1.06092
RightLeg  30.2987 5.80432 3.40529
RightFoot  -1.07614 0.358574 -4.07028
RightToes  2.96859e-009 0 -3.6325e-017
Spine  21.4411 -4.02292 13.602
Spine1  10.202 -0.492419 -5.17713
HEad  -16.5705 -0.643124 -3.30195
LeftShoulder1  1.75276 -3.35368 -19.0393
LeftArm  -18.1655 -56.3719 -36.4468
LeftForeArm  0.654222 -26.7234 -5.71158
LeftHand  -0.0808637 2.76531 2.98179
RightShoulder  0.73455 1.08316 8.61038
RightArm  -21.4953 62.511 33.2578
RightForeArm  -15.2166 21.5065 4.98663
RightHand  -0.449866 5.81048 -4.95157
LeftUpLeg  -27.046 5.97017 2.50968
LeftLeg  56.1686 -2.46252 -3.46745
LeftFoot  -3.18975 0.182111 -2.29995
LeftToes  3.24686e-010 -7.02549e-012 1.39809e-011
563
root  57.1891 37.4516 9.10648 179.946 79.886 -176.543
RightUpLeg  -20.8801 -9.01302 0.958578
RightLeg  28.2765 6.31104 3.43
RightFoot  -1.13347 0.365208 -4.17
RightToes  2.96859e-009 0 -3.6325e-017
Spine  21.77 -3.65168 13.183
Spine1  9.95174 -0.191788 -5.56644
HEad  -18.0318 -1.35612 -2.26399
LeftShoulder1  1.7917 -3.78043 -17.9927
LeftArm  -19.2915 -58.0591 -35.3818
LeftForeArm  -1.05587 -24.3981 -5.27498
LeftHand  -0.0538706 3.30403 2.13103
RightShoulder  0.744307 1.56358 7.11059
RightArm  -21.1387 64.7568 31.7681
RightForeArm  -16.7783 17.6089 3.25342
RightHand  -0.292081 4.40907 -3.75568
LeftUpLeg  -27.4792 4.25385 2.67025
LeftLeg  44.2094 -3.37217 -3.08455
LeftFoot  -2.26011 0.237074 -2.83325
LeftToes  3.24686e-010 -7.02549e-012 1.39809e-011
564
root  57.776 37.6827 8.90627 -178.647 81.4023 -175.78
RightUpLeg  -19.9009 -7.85885 1.00118
RightLeg  26.8116 6.69543 3.43304
RightFoot  -1.16999 0.374472 -4.29207
RightToes  2.96859e-009 0 -3.6325e-017
Spine  22.7425 -3.29736 13.4588
Spine1  9.80234 0.59119 -6.69045
HEad  -18.9063 -0.999655 -2.46775
LeftShoulder1  1.81201 -4.15434 -17.0016
LeftArm  -20.2636 -60.0885 -33.9988
LeftForeArm  -2.46991 -22.022 -4.8093
LeftHand  -0.0406066 4.03688 1.75441
RightShoulder  0.740152 1.95997 5.80725
RightArm  -20.8723 66.7293 29.5941
RightForeArm  -21.3537 13.4259 2.08605
RightHand  -0.253072 4.34604 -3.313
LeftUpLeg  -26.1721 2.75807 3.62775
LeftLeg  31.3865 -4.98436 -2.93507
LeftFoot  -1.94922 0.494575 -5.8508
LeftToes  3.24686e-010 -7.02549e-012 1.39809e-011
565
root  58.3249 37.7935 8.67226 -174.836 82.8506 -172.597
RightUpLeg  -19.3577 -6.86918 1.22081
RightLeg  26.0104 7.03975 3.49772
RightFoot  -1.56022 0.359773 -4.32447
RightToes  2.96859e-009 0 -3.6325e-017
Spine  23.4682 -3.09797 13.5929
Spine1  9.91324 1.20964 -7.76507
HEad  -20.6579 -0.987661 -2.08984
LeftShoulder1  1.81402 -4.69334 -15.3129
LeftArm  -23.3696 -61.1766 -32.6374
LeftForeArm  -2.43775 -20.0386 -4.26637
LeftHand  -0.0252681 3.93619 0.361837
RightShoulder  0.746459 2.29668 5.05062
RightArm  -22.4032 68.6933 27.9464
RightForeArm  -22.3195 9.61386 1.35909
RightHand  -0.164053 3.61619 -2.28172
LeftUpLeg  -24.8713 0.171408 5.0956
LeftLeg  20.7589 -6.60713 -2.43882
LeftFoot  0.414009 0.771071 -7.53661
LeftToes  3.24686e-010 -7.02549e-012 1.39809e-011
566
root  58.8674 37.808 8.41047 -164.916 84.7683 -163.311
RightUpLeg  -19.3797 -5.2654 1.71288
RightLeg  26.2319 7.45525 3.75503
RightFoot  -2.25388 0.322196 -4.23549
RightToes  2.96859e-009 0 -3.6325e-017
Spine  24.1191 -2.63845 13.6774
Spine1  10.0791 1.99424 -8.3543
HEad  -21.6703 -0.0825142 -2.34694
LeftShoulder1  1.78611 -4.79637 -14.6498
LeftArm  -24.9273 -62.6314 -30.3742
LeftForeArm  -4.98655 -18.1688 -3.83059
LeftHand  -0.0244913 4.69209 -0.395413
RightShoulder  0.733623 2.72957 3.79189
RightArm  -25.3294 70.2499 26.7018
RightForeArm  -20.2013 5.89149 0.411579
RightHand  0.0531867 2.23896 0.576903
LeftUpLeg  -23.8006 0.226376 6.07198
LeftLeg  13.8794 -8.5131 -1.97102
LeftFoot  4.82374 1.24646 -8.83777
LeftToes  3.24686e-010 -7.02549e-012 1.39809e-011
567
root  59.4015 37.7647 8.09097 -145.398 86.5996 -144.336
RightUpLeg  -19.5885 -3.31147 1.92851
RightLeg  26.959 7.69706 4.00665
RightFoot  -3.31977 0.250329 -3.89263
RightToes  2.96859e-009 0 -3.6325e-017
Spine  24.1913 -2.10189 13.4396
Spine1  11.4534 2.78374 -8.62998
HEad  -23.2728 0.719287 -2.51999
LeftShoulder1  1.74033 -4.68117 -14.3709
LeftArm  -27.5062 -64.3639 -27.244
LeftForeArm  -7.45127 -16.4656 -3.3064
LeftHand  -0.0394708 5.6365 -2.30162
RightShoulder  0.658217 2.96843 1.97878
RightArm  -27.3163 72.146 25.0105
RightForeArm  -23.8368 1.99549 0.170829
RightHand  0.0732721 1.61023 1.0497
LeftUpLeg  -23.0362 3.93084 5.42941
LeftLeg  11.7082 -11.1211 -2.16875
LeftFoot  8.69998 1.50502 -8.91398
LeftToes  3.24686e-010 -7.02549e-012 1.39809e-011
568
root  59.8504 37.8384 7.77978 -108.717 87.9039 -108.521
RightUpLeg  -19.8236 -0.610805 1.50913
RightLeg  26.7352 7.27999 3.74691
RightFoot  -3.69786 0.214298 -3.5782
RightToes  2.96859e-009 0 -3.6325e-017
Spine  24.2102 -1.66348 11.9927
Spine1  12.508 3.46985 -9.32334
HEad  -24.4781 2.08153 -2.59395
LeftShoulder1  1.68893 -4.68662 -13.6645
LeftArm  -30.4499 -65.3973 -23.606
LeftForeArm  -9.81374 -14.7043 -2.65729
LeftHand  -0.086123 6.73002 -3.98996
RightShoulder  0.630777 3.38002 0.819949
RightArm  -28.7777 73.3433 25.3862
RightForeArm  -27.5494 -0.0956154 -0.311174
RightHand  0.036217 0.835031 0.595998
LeftUpLeg  -23.3864 5.86209 4.63544
LeftLeg  12.8393 -11.4292 -2.71585
LeftFoot  10.1582 0.164974 -1.15503
LeftToes  3.24686e-010 -7.02549e-012 1.39809e-011
569
root  60.2494 37.8046 7.43995 -63.4107 88.1089 -64.2614
RightUpLeg  -20.8165 1.9119 0.770192
RightLeg  27.4567 6.48236 3.41821
RightFoot  -4.69822 0.132222 -2.81065
RightToes  2.96859e-009 0 -3.6325e-017
Spine  24.7432 -1.22266 10.0415
Spine1  12.2557 3.46004 -8.71982
HEad  -25.6038 3.174 -2.9336
LeftShoulder1  1.63006 -4.47538 -13.4528
LeftArm  -32.316 -65.8471 -20.4224
LeftForeArm  -12.4142 -13.6064 -2.43066
LeftHand  -0.0916964 6.50385 -5.18568
RightShoulder  0.60347 3.55764 0.117566
RightArm  -29.9258 74.9955 24.8955
RightForeArm  -30.3154 -1.88041 -0.377205
RightHand  0.0399724 1.1983 0.614025
LeftUpLeg  -24.5773 5.94654 4.28923
LeftLeg  14.3374 -9.75484 -2.58134
LeftFoot  10.7266 0.0528965 -0.604577
LeftToes  3.24686e-010 -7.02549e-012 1.39809e-011
570
root  60.6771 37.7135 7.13182 -54.0564 87.6046 -55.1044
RightUpLeg  -20.9119 3.874 0.342555
RightLeg  28.5854 5.37553 2.93725
RightFoot  -6.29549 0.0449689 -1.99657
RightToes  2.96859e-009 0 -3.6325e-017
Spine  25.4495 -1.08348 8.69682
Spine1  12.4474 2.98396 -7.5805
HEad  -26.7689 3.77449 -3.23192
LeftShoulder1  1.56043 -4.17936 -13.3209
LeftArm  -34.2601 -66.0549 -17.5589
LeftForeArm  -14.6996 -14.3623 -2.74983
LeftHand  -0.102472 6.61774 -5.59393
RightShoulder  0.597175 3.63409 -0.0878567
RightArm  -30.0174 75.6243 25.0269
RightForeArm  -34.4393 -2.07627 -0.107048
RightHand  0.0271641 2.09121 0.151035
LeftUpLeg  -25.556 6.02374 4.20759
LeftLeg  17.3941 -9.29278 -2.93237
LeftFoot  8.63749 0.0486257 -0.57506
LeftToes  3.24686e-010 -7.02549e-012 1.39809e-011
571
root  61.115 37.7512 6.83717 -31.416 87.3033 -33.1923
RightUpLeg  -21.3148 6.08029 -0.794284
RightLeg  29.017 4.44794 2.43748
RightFoot  -7.28828 -0.00691969 -1.1941
RightToes  2.96859e-009 0 -3.6325e-017
Spine  25.5113 -0.623936 7.09435
Spine1  12.7732 3.15285 -7.38767
HEad  -26.7956 4.47187 -3.76746
LeftShoulder1  1.55168 -4.13876 -13.315
LeftArm  -35.4077 -65.9136 -16.6888
LeftForeArm  -15.8047 -15.9976 -3.16169
LeftHand  -0.122369 6.82735 -6.22499
RightShoulder  0.58444 3.55135 -0.179068
RightArm  -29.6798 75.3399 24.9777
RightForeArm  -35.8592 -1.5478 0.162957
RightHand  0.141892 4.52164 1.40331
LeftUpLeg  -25.8807 6.90253 3.15681
LeftLeg  18.0148 -8.9336 -2.92334
LeftFoot  7.97227 -0.0638011 0.0920538
LeftToes  3.24686e-010 -7.02549e-012 1.39809e-011
572
root  61.4728 37.7653 6.57442 -20.6263 86.719 -22.6877
RightUpLeg  -21.2949 7.40354 -1.4901
RightLeg  29.3238 4.06208 2.23396
RightFoot  -8.08249 -0.0448769 -0.36252
RightToes  2.96859e-009 0 -3.6325e-017
Spine  25.8164 -0.438659 6.23302
Spine1  12.9197 3.38762 -7.80641
HEad  -26.5611 4.73898 -4.01123
LeftShoulder1  1.54182 -3.89685 -13.8956
LeftArm  -36.7832 -65.7615 -16.2334
LeftForeArm  -16.1359 -18.09 -3.84768
LeftHand  -0.163558 7.40042 -6.57852
RightShoulder  0.609223 3.91222 -0.262668
RightArm  -29.2661 73.6326 27.2854
RightForeArm  -36.3802 0.713119 -0.368199
RightHand  0.188432 4.51064 1.93297
LeftUpLeg  -26.0878 8.1286 2.44018
LeftLeg  19.2486 -9.48769 -3.34237
LeftFoot  7.12327 -0.210116 1.02466
LeftToes  3.24686e-010 -7.02549e-012 1.39809e-011
573
root  61.8255 37.7706 6.36885 -22.4861 86.9527 -25.061
RightUpLeg  -21.6822 7.42113 -1.9125
RightLeg  30.1653 3.89915 2.2137
RightFoot  -8.35166 -0.064449 0.31558
RightToes  2.96859e-009 0 -3.6325e-017
Spine  25.6277 -0.411385 5.41424
Spine1  13.0709 3.05759 -7.23453
HEad  -26.4521 5.17433 -4.84762
LeftShoulder1  1.54618 -3.68649 -14.6336
LeftArm  -38.4718 -65.0293 -16.8724
LeftForeArm  -15.2361 -20.4007 -4.55047
LeftHand  -0.156125 7.15929 -6.90603
RightShoulder  0.656723 4.05453 0.285287
RightArm  -29.4036 72.6248 26.7545
RightForeArm  -37.2035 2.293 -0.164224
RightHand  0.257725 4.24968 2.81127
LeftUpLeg  -26.6714 8.08396 2.04991
LeftLeg  20.4653 -9.66893 -3.64069
LeftFoot  6.16837 -0.268738 1.5013
LeftToes  3.24686e-010 -7.02549e-012 1.39809e-011
574
root  62.1411 37.7472 6.20504 -16.3924 87.121 -18.4217
RightUpLeg  -21.6177 6.71868 -2.64012
RightLeg  32.1135 4.77876 2.99638
RightFoot  -8.41116 -0.0958868 1.51493
RightToes  2.96859e-009 0 -3.6325e-017
Spine  25.9786 -0.209683 4.37283
Spine1  13.6294 3.15579 -7.2262
HEad  -26.473 5.1312 -5.11606
LeftShoulder1  1.56737 -3.49992 -15.5837
LeftArm  -37.8752 -65.0776 -16.7641
LeftForeArm  -17.761 -22.2373 -5.43643
LeftHand  -0.0889733 6.48303 -5.1086
RightShoulder  0.676901 3.91273 0.782605
RightArm  -29.1734 71.4192 25.8169
RightForeArm  -38.566 4.26722 0.310267
RightHand  0.24781 5.25942 2.39722
LeftUpLeg  -26.0662 7.58977 1.58616
LeftLeg  21.506 -9.21587 -3.65094
LeftFoot  5.08289 -0.284598 1.75709
LeftToes  3.24686e-010 -7.02549e-012 1.39809e-011
575
root  62.4047 37.7808 6.06944 -17.9929 86.965 -19.7044
RightUpLeg  -22.3484 5.94865 -2.97111
RightLeg  34.6529 6.22192 4.35645
RightFoot  -7.41251 -0.207782 4.44051
RightToes  2.96859e-009 0 -3.6325e-017
Spine  26.0356 -0.0140897 4.25687
Spine1  13.881 3.40014 -7.30847
HEad  -26.5617 5.74631 -6.25582
LeftShoulder1  1.58197 -3.41653 -16.1135
LeftArm  -36.9112 -64.6687 -17.9067
LeftForeArm  -17.0178 -24.5749 -6.09011
LeftHand  -0.0773619 6.30621 -4.71895
RightShoulder  0.679343 3.90722 0.828505
RightArm  -28.1939 69.7046 26.0076
RightForeArm  -41.011 6.44928 0.817872
RightHand  0.1711 5.47552 1.50572
LeftUpLeg  -25.4894 7.59149 1.63403
LeftLeg  22.0142 -9.21921 -3.74602
LeftFoot  4.38115 -0.280092 1.83568
LeftToes  3.24686e-010 -7.02549e-012 1.39809e-011
576
root  62.6394 37.8758 6.02126 -20.8546 86.8493 -22.0807
RightUpLeg  -23.0705 6.35016 -3.38615
RightLeg  37.2406 7.63811 5.95579
RightFoot  -5.32213 -0.414312 7.20783
RightToes  2.96859e-009 0 -3.6325e-017
Spine  25.9877 0.205504 3.46562
Spine1  14.2507 3.26531 -6.64716
HEad  -26.7604 7.45264 -7.10632
LeftShoulder1  1.49911 -2.96268 -16.46
LeftArm  -35.9828 -63.8588 -18.2524
LeftForeArm  -17.6606 -26.5912 -6.57722
LeftHand  -0.0860876 6.44593 -4.97437
RightShoulder  0.696655 3.98807 0.97964
RightArm  -27.4455 68.1121 27.0173
RightForeArm  -40.0089 9.57382 1.02832
RightHand  0.302792 5.12802 3.03473
LeftUpLeg  -24.4076 7.8661 1.81905
LeftLeg  21.825 -9.58165 -3.86944
LeftFoot  4.07961 -0.270185 1.8118
LeftToes  3.24686e-010 -7.02549e-012 1.39809e-011
